# MagicaVoxel @ Ephtracy

# group
o 

# material
mtllib DoorsWindowsWalls-2.mtl
usemtl palette

# normals
vn 0 0 1
vn 0 0 -1
vn 1 0 0
vn -1 0 0
vn 0 -1 0
vn 0 1 0

# texcoords
vt 0.458984 0.5
vt 0.462891 0.5

# verts
v 0.9 0.1 0
v -0.9 0.1 0
v 0.7 0.2 0
v 0.5 0.2 0
v 0.4 0.2 0
v 0.2 0.2 0
v 0.1 0.2 0
v -0.1 0.2 0
v -0.2 0.2 0
v -0.4 0.2 0
v -0.5 0.2 0
v -0.7 0.2 0
v 0.7 3.5 0
v 0.6 3.5 0
v -0.6 3.5 0
v -0.7 3.5 0
v 0.6 3.6 0
v 0.5 3.6 0
v 0.4 3.6 0
v 0.2 3.6 0
v 0.1 3.6 0
v -0.1 3.6 0
v -0.2 3.6 0
v -0.4 3.6 0
v -0.5 3.6 0
v -0.6 3.6 0
v 0.9 3.7 0
v -0.9 3.7 0
v 0.9 0.1 -0.1
v -0.9 0.1 -0.1
v 0.7 0.2 -0.1
v 0.5 0.2 -0.1
v 0.4 0.2 -0.1
v 0.2 0.2 -0.1
v 0.1 0.2 -0.1
v -0.1 0.2 -0.1
v -0.2 0.2 -0.1
v -0.4 0.2 -0.1
v -0.5 0.2 -0.1
v -0.7 0.2 -0.1
v 0.7 3.5 -0.1
v 0.6 3.5 -0.1
v -0.6 3.5 -0.1
v -0.7 3.5 -0.1
v 0.6 3.6 -0.1
v 0.5 3.6 -0.1
v 0.4 3.6 -0.1
v 0.2 3.6 -0.1
v 0.1 3.6 -0.1
v -0.1 3.6 -0.1
v -0.2 3.6 -0.1
v -0.4 3.6 -0.1
v -0.5 3.6 -0.1
v -0.6 3.6 -0.1
v 0.9 3.7 -0.1
v -0.9 3.7 -0.1
v 0.9 0.1 0
v 0.9 3.7 0
v 0.9 0.1 -0.1
v 0.9 3.7 -0.1
v -0.9 0.1 0
v -0.9 3.7 0
v -0.9 0.1 -0.1
v -0.9 3.7 -0.1
v 0.9 0.1 0
v 0.9 0.1 -0.1
v -0.9 0.1 0
v -0.9 0.1 -0.1
v 0.9 3.7 0
v 0.9 3.7 -0.1
v -0.9 3.7 0
v -0.9 3.7 -0.1

# faces
f 3/2/1 2/2/1 1/2/1
f 4/2/1 2/2/1 3/2/1
f 5/2/1 2/2/1 4/2/1
f 6/2/1 2/2/1 5/2/1
f 7/2/1 2/2/1 6/2/1
f 8/2/1 2/2/1 7/2/1
f 9/2/1 2/2/1 8/2/1
f 10/2/1 2/2/1 9/2/1
f 11/2/1 2/2/1 10/2/1
f 12/2/1 2/2/1 11/2/1
f 13/2/1 3/2/1 1/2/1
f 13/1/1 4/1/1 3/1/1
f 14/1/1 4/1/1 13/1/1
f 15/1/1 12/1/1 11/1/1
f 16/2/1 2/2/1 12/2/1
f 16/1/1 12/1/1 15/1/1
f 17/1/1 4/1/1 14/1/1
f 17/2/1 14/2/1 13/2/1
f 18/2/1 5/2/1 4/2/1
f 18/1/1 4/1/1 17/1/1
f 19/1/1 6/1/1 5/1/1
f 19/2/1 5/2/1 18/2/1
f 20/2/1 7/2/1 6/2/1
f 20/1/1 6/1/1 19/1/1
f 21/1/1 8/1/1 7/1/1
f 21/2/1 7/2/1 20/2/1
f 22/2/1 9/2/1 8/2/1
f 22/1/1 8/1/1 21/1/1
f 23/1/1 10/1/1 9/1/1
f 23/2/1 9/2/1 22/2/1
f 24/2/1 11/2/1 10/2/1
f 24/1/1 10/1/1 23/1/1
f 25/1/1 15/1/1 11/1/1
f 25/2/1 11/2/1 24/2/1
f 26/2/1 16/2/1 15/2/1
f 26/1/1 15/1/1 25/1/1
f 27/2/1 24/2/1 23/2/1
f 27/2/1 17/2/1 13/2/1
f 27/2/1 26/2/1 25/2/1
f 27/2/1 25/2/1 24/2/1
f 27/2/1 13/2/1 1/2/1
f 27/2/1 23/2/1 22/2/1
f 27/2/1 22/2/1 21/2/1
f 27/2/1 21/2/1 20/2/1
f 27/2/1 20/2/1 19/2/1
f 27/2/1 19/2/1 18/2/1
f 27/2/1 18/2/1 17/2/1
f 28/2/1 16/2/1 26/2/1
f 28/2/1 26/2/1 27/2/1
f 28/2/1 2/2/1 16/2/1
f 29/2/2 30/2/2 31/2/2
f 31/2/2 30/2/2 32/2/2
f 32/2/2 30/2/2 33/2/2
f 33/2/2 30/2/2 34/2/2
f 34/2/2 30/2/2 35/2/2
f 35/2/2 30/2/2 36/2/2
f 36/2/2 30/2/2 37/2/2
f 37/2/2 30/2/2 38/2/2
f 38/2/2 30/2/2 39/2/2
f 39/2/2 30/2/2 40/2/2
f 29/2/2 31/2/2 41/2/2
f 31/1/2 32/1/2 41/1/2
f 41/1/2 32/1/2 42/1/2
f 39/1/2 40/1/2 43/1/2
f 40/2/2 30/2/2 44/2/2
f 43/1/2 40/1/2 44/1/2
f 42/1/2 32/1/2 45/1/2
f 41/2/2 42/2/2 45/2/2
f 32/2/2 33/2/2 46/2/2
f 45/1/2 32/1/2 46/1/2
f 33/1/2 34/1/2 47/1/2
f 46/2/2 33/2/2 47/2/2
f 34/2/2 35/2/2 48/2/2
f 47/1/2 34/1/2 48/1/2
f 35/1/2 36/1/2 49/1/2
f 48/2/2 35/2/2 49/2/2
f 36/2/2 37/2/2 50/2/2
f 49/1/2 36/1/2 50/1/2
f 37/1/2 38/1/2 51/1/2
f 50/2/2 37/2/2 51/2/2
f 38/2/2 39/2/2 52/2/2
f 51/1/2 38/1/2 52/1/2
f 39/1/2 43/1/2 53/1/2
f 52/2/2 39/2/2 53/2/2
f 43/2/2 44/2/2 54/2/2
f 53/1/2 43/1/2 54/1/2
f 51/2/2 52/2/2 55/2/2
f 41/2/2 45/2/2 55/2/2
f 53/2/2 54/2/2 55/2/2
f 52/2/2 53/2/2 55/2/2
f 29/2/2 41/2/2 55/2/2
f 50/2/2 51/2/2 55/2/2
f 49/2/2 50/2/2 55/2/2
f 48/2/2 49/2/2 55/2/2
f 47/2/2 48/2/2 55/2/2
f 46/2/2 47/2/2 55/2/2
f 45/2/2 46/2/2 55/2/2
f 54/2/2 44/2/2 56/2/2
f 55/2/2 54/2/2 56/2/2
f 44/2/2 30/2/2 56/2/2
f 59/2/3 58/2/3 57/2/3
f 60/2/3 58/2/3 59/2/3
f 61/2/4 62/2/4 63/2/4
f 63/2/4 62/2/4 64/2/4
f 67/2/5 66/2/5 65/2/5
f 68/2/5 66/2/5 67/2/5
f 69/2/6 70/2/6 71/2/6
f 71/2/6 70/2/6 72/2/6
