# Blender v2.82 (sub 7) OBJ File: 'MedievalSceneExport.blend'
# www.blender.org
mtllib KitchenKnife.mtl
o KitchenNKnife_ObjObject.021
v -0.620834 0.101572 0.131250
v -0.620834 0.001572 0.031250
v -0.620834 0.001572 0.131250
v -0.620834 0.101572 0.031250
v -0.520834 0.101572 0.031250
v -0.520834 0.001572 -0.068749
v -0.520834 0.001572 0.031250
v -0.520834 0.101572 -0.068749
v -0.420834 0.101572 -0.068749
v -0.420834 0.001572 -0.168750
v -0.420834 0.001572 -0.068749
v -0.420834 0.101572 -0.168750
v 0.379166 0.001572 0.031250
v 0.379166 0.001572 -0.168750
v 0.379166 0.101572 0.031250
v 0.379166 0.101572 -0.168750
v 0.779166 0.001572 0.131250
v 0.779166 0.001572 0.031250
v 0.779166 0.101572 0.131250
v 0.779166 0.101572 0.031250
v -0.520834 0.001572 0.131250
v -0.620834 0.101572 0.131250
v -0.620834 0.001572 0.131250
v -0.520834 0.101572 0.131250
v 0.279166 0.001572 0.131250
v 0.279166 0.101572 0.131250
v 0.379166 0.001572 0.131250
v 0.379166 0.101572 0.131250
v 0.679166 0.001572 0.131250
v 0.679166 0.101572 0.131250
v 0.779166 0.001572 0.131250
v 0.779166 0.101572 0.131250
v -0.620834 0.001572 0.031250
v -0.620834 0.101572 0.031250
v -0.520834 0.001572 0.031250
v -0.520834 0.101572 0.031250
v 0.379166 0.001572 0.031250
v 0.379166 0.101572 0.031250
v 0.679166 0.001572 0.031250
v 0.679166 0.101572 0.031250
v 0.779166 0.001572 0.031250
v 0.779166 0.101572 0.031250
v -0.520834 0.001572 -0.068749
v -0.520834 0.101572 -0.068749
v -0.420834 0.001572 -0.068749
v -0.420834 0.101572 -0.068749
v -0.420834 0.001572 -0.168750
v -0.420834 0.101572 -0.168750
v -0.320834 0.001572 -0.168750
v -0.320834 0.101572 -0.168750
v 0.179166 0.001572 -0.168750
v 0.179166 0.101572 -0.168750
v 0.379166 0.001572 -0.168750
v 0.379166 0.101572 -0.168750
v -0.620834 0.001572 0.031250
v -0.520834 0.001572 0.131250
v -0.620834 0.001572 0.131250
v -0.520834 0.001572 0.031250
v 0.279166 0.001572 0.131250
v -0.420834 0.001572 0.031250
v 0.379166 0.001572 0.031250
v 0.379166 0.001572 0.131250
v 0.679166 0.001572 0.131250
v 0.679166 0.001572 0.031250
v 0.779166 0.001572 0.131250
v 0.779166 0.001572 0.031250
v -0.520834 0.001572 -0.068749
v -0.420834 0.001572 -0.068749
v -0.320834 0.001572 -0.068749
v 0.179166 0.001572 -0.068749
v 0.279166 0.001572 -0.068749
v -0.420834 0.001572 -0.168750
v -0.320834 0.001572 -0.168750
v 0.179166 0.001572 -0.168750
v 0.379166 0.001572 -0.168750
v -0.620834 0.101572 0.131250
v -0.520834 0.101572 0.131250
v -0.620834 0.101572 0.031250
v 0.279166 0.101572 0.131250
v -0.520834 0.101572 0.031250
v -0.420834 0.101572 0.031250
v 0.379166 0.101572 0.131250
v 0.379166 0.101572 0.031250
v 0.679166 0.101572 0.131250
v 0.779166 0.101572 0.131250
v 0.679166 0.101572 0.031250
v 0.779166 0.101572 0.031250
v -0.520834 0.101572 -0.068749
v -0.420834 0.101572 -0.068749
v -0.320834 0.101572 -0.068749
v 0.179166 0.101572 -0.068749
v 0.279166 0.101572 -0.068749
v -0.420834 0.101572 -0.168750
v -0.320834 0.101572 -0.168750
v 0.179166 0.101572 -0.168750
v 0.379166 0.101572 -0.168750
vt 0.013672 0.500000
vt 0.013672 0.500000
vt 0.013672 0.500000
vt 0.013672 0.500000
vt 0.013672 0.500000
vt 0.013672 0.500000
vt 0.013672 0.500000
vt 0.013672 0.500000
vt 0.013672 0.500000
vt 0.013672 0.500000
vt 0.013672 0.500000
vt 0.013672 0.500000
vt 0.013672 0.500000
vt 0.013672 0.500000
vt 0.013672 0.500000
vt 0.013672 0.500000
vt 0.013672 0.500000
vt 0.013672 0.500000
vt 0.013672 0.500000
vt 0.013672 0.500000
vt 0.013672 0.500000
vt 0.013672 0.500000
vt 0.013672 0.500000
vt 0.013672 0.500000
vt 0.005859 0.500000
vt 0.005859 0.500000
vt 0.005859 0.500000
vt 0.005859 0.500000
vt 0.013672 0.500000
vt 0.013672 0.500000
vt 0.013672 0.500000
vt 0.013672 0.500000
vt 0.005859 0.500000
vt 0.005859 0.500000
vt 0.005859 0.500000
vt 0.005859 0.500000
vt 0.013672 0.500000
vt 0.013672 0.500000
vt 0.013672 0.500000
vt 0.013672 0.500000
vt 0.013672 0.500000
vt 0.013672 0.500000
vt 0.013672 0.500000
vt 0.013672 0.500000
vt 0.005859 0.500000
vt 0.005859 0.500000
vt 0.005859 0.500000
vt 0.005859 0.500000
vt 0.013672 0.500000
vt 0.013672 0.500000
vt 0.013672 0.500000
vt 0.013672 0.500000
vt 0.013672 0.500000
vt 0.013672 0.500000
vt 0.013672 0.500000
vt 0.013672 0.500000
vt 0.013672 0.500000
vt 0.013672 0.500000
vt 0.013672 0.500000
vt 0.013672 0.500000
vt 0.005859 0.500000
vt 0.005859 0.500000
vt 0.005859 0.500000
vt 0.005859 0.500000
vt 0.013672 0.500000
vt 0.013672 0.500000
vt 0.013672 0.500000
vt 0.013672 0.500000
vt 0.013672 0.500000
vt 0.013672 0.500000
vt 0.013672 0.500000
vt 0.005859 0.500000
vt 0.005859 0.500000
vt 0.005859 0.500000
vt 0.013672 0.500000
vt 0.005859 0.500000
vt 0.013672 0.500000
vt 0.013672 0.500000
vt 0.013672 0.500000
vt 0.005859 0.500000
vt 0.005859 0.500000
vt 0.005859 0.500000
vt 0.013672 0.500000
vt 0.013672 0.500000
vt 0.013672 0.500000
vt 0.005859 0.500000
vt 0.013672 0.500000
vt 0.013672 0.500000
vt 0.013672 0.500000
vt 0.005859 0.500000
vt 0.013672 0.500000
vt 0.005859 0.500000
vt 0.005859 0.500000
vt 0.013672 0.500000
vt 0.005859 0.500000
vt 0.013672 0.500000
vt 0.013672 0.500000
vt 0.005859 0.500000
vt 0.013672 0.500000
vt 0.013672 0.500000
vt 0.013672 0.500000
vt 0.005859 0.500000
vt 0.013672 0.500000
vt 0.013672 0.500000
vt 0.013672 0.500000
vt 0.013672 0.500000
vt 0.005859 0.500000
vt 0.005859 0.500000
vt 0.005859 0.500000
vt 0.013672 0.500000
vt 0.005859 0.500000
vt 0.013672 0.500000
vt 0.013672 0.500000
vt 0.013672 0.500000
vt 0.005859 0.500000
vt 0.005859 0.500000
vt 0.005859 0.500000
vt 0.013672 0.500000
vt 0.013672 0.500000
vt 0.013672 0.500000
vt 0.005859 0.500000
vt 0.013672 0.500000
vt 0.013672 0.500000
vt 0.013672 0.500000
vt 0.005859 0.500000
vt 0.013672 0.500000
vt 0.005859 0.500000
vt 0.005859 0.500000
vt 0.013672 0.500000
vt 0.005859 0.500000
vt 0.013672 0.500000
vt 0.013672 0.500000
vt 0.005859 0.500000
vt 0.013672 0.500000
vt 0.013672 0.500000
vt 0.013672 0.500000
vt 0.005859 0.500000
vt 0.013672 0.500000
vn -1.0000 -0.0000 0.0000
vn 1.0000 -0.0000 0.0000
vn 0.0000 -0.0000 1.0000
vn 0.0000 0.0000 -1.0000
vn 0.0000 -1.0000 -0.0000
vn 0.0000 1.0000 0.0000
usemtl palette.046
s 1
f 1/1/1 2/2/1 3/3/1
f 4/4/1 2/2/1 1/1/1
f 5/5/1 6/6/1 7/7/1
f 8/8/1 6/6/1 5/5/1
f 9/9/1 10/10/1 11/11/1
f 12/12/1 10/10/1 9/9/1
f 13/13/2 14/14/2 15/15/2
f 15/15/2 14/14/2 16/16/2
f 17/17/2 18/18/2 19/19/2
f 19/19/2 18/18/2 20/20/2
f 21/21/3 22/22/3 23/23/3
f 24/24/3 22/22/3 21/21/3
f 25/25/3 24/26/3 21/27/3
f 26/28/3 24/26/3 25/25/3
f 27/29/3 26/30/3 25/31/3
f 28/32/3 26/30/3 27/29/3
f 29/33/3 28/34/3 27/35/3
f 30/36/3 28/34/3 29/33/3
f 31/37/3 30/38/3 29/39/3
f 32/40/3 30/38/3 31/37/3
f 33/41/4 34/42/4 35/43/4
f 35/43/4 34/42/4 36/44/4
f 37/45/4 38/46/4 39/47/4
f 39/47/4 38/46/4 40/48/4
f 39/49/4 40/50/4 41/51/4
f 41/51/4 40/50/4 42/52/4
f 43/53/4 44/54/4 45/55/4
f 45/55/4 44/54/4 46/56/4
f 47/57/4 48/58/4 49/59/4
f 49/59/4 48/58/4 50/60/4
f 49/61/4 50/62/4 51/63/4
f 51/63/4 50/62/4 52/64/4
f 51/65/4 52/66/4 53/67/4
f 53/67/4 52/66/4 54/68/4
f 55/69/5 56/70/5 57/71/5
f 58/72/5 59/73/5 56/74/5
f 58/75/5 56/70/5 55/69/5
f 60/76/5 59/73/5 58/72/5
f 61/77/5 62/78/5 59/79/5
f 61/80/5 63/81/5 62/82/5
f 64/83/5 65/84/5 63/85/5
f 64/86/5 63/81/5 61/80/5
f 66/87/5 65/84/5 64/83/5
f 67/88/5 60/89/5 58/75/5
f 68/90/5 59/73/5 60/76/5
f 68/91/5 60/89/5 67/88/5
f 69/92/5 59/73/5 68/90/5
f 70/93/5 59/73/5 69/92/5
f 71/94/5 61/77/5 59/79/5
f 71/95/5 59/73/5 70/93/5
f 72/96/5 69/97/5 68/91/5
f 73/98/5 70/93/5 69/92/5
f 73/99/5 69/97/5 72/96/5
f 74/100/5 71/94/5 70/101/5
f 74/102/5 70/93/5 73/98/5
f 75/103/5 61/77/5 71/94/5
f 75/103/5 71/94/5 74/100/5
f 76/104/6 77/105/6 78/106/6
f 77/107/6 79/108/6 80/109/6
f 78/106/6 77/105/6 80/110/6
f 80/109/6 79/108/6 81/111/6
f 79/112/6 82/113/6 83/114/6
f 82/115/6 84/116/6 83/117/6
f 84/118/6 85/119/6 86/120/6
f 83/117/6 84/116/6 86/121/6
f 86/120/6 85/119/6 87/122/6
f 80/110/6 81/123/6 88/124/6
f 81/111/6 79/108/6 89/125/6
f 88/124/6 81/123/6 89/126/6
f 89/125/6 79/108/6 90/127/6
f 90/127/6 79/108/6 91/128/6
f 79/112/6 83/114/6 92/129/6
f 91/128/6 79/108/6 92/130/6
f 89/126/6 90/131/6 93/132/6
f 90/127/6 91/128/6 94/133/6
f 93/132/6 90/131/6 94/134/6
f 91/135/6 92/129/6 95/136/6
f 94/133/6 91/128/6 95/137/6
f 92/129/6 83/114/6 96/138/6
f 95/136/6 92/129/6 96/138/6
