# MagicaVoxel @ Ephtracy

# group
o 

# material
mtllib Messenine-0.mtl
usemtl palette

# normals
vn -1 0 0
vn 1 0 0
vn 0 0 1
vn 0 0 -1
vn 0 -1 0
vn 0 1 0

# texcoords
vt 0.0136719 0.5
vt 0.0175781 0.5

# verts
v 0 0 0.6
v 0 0 0.4
v 0 0 -0.5
v 0 0 -0.7
v 0 0.2 0.6
v 0 0.2 0.5
v 0 0.2 0.4
v 0 0.2 0.3
v 0 0.2 -0.4
v 0 0.2 -0.5
v 0 0.3 0.4
v 0 0.3 0.3
v 0 0.3 -0.4
v 0 0.3 -0.5
v 0 0.9 0.4
v 0 0.9 0.3
v 0 0.9 -0.4
v 0 0.9 -0.5
v 0 1 0.4
v 0 1 0.3
v 0 1 -0.4
v 0 1 -0.5
v 0 1.6 0.4
v 0 1.6 0.3
v 0 1.6 -0.4
v 0 1.6 -0.5
v 0 1.7 0.4
v 0 1.7 0.3
v 0 1.7 -0.4
v 0 1.7 -0.5
v 0 2.3 0.4
v 0 2.3 0.3
v 0 2.3 -0.4
v 0 2.3 -0.5
v 0 2.4 0.4
v 0 2.4 0.3
v 0 2.4 -0.4
v 0 2.4 -0.5
v 0 3 0.4
v 0 3 0.3
v 0 3 -0.4
v 0 3 -0.5
v 0 3.1 0.4
v 0 3.1 0.3
v 0 3.1 -0.4
v 0 3.1 -0.5
v 0 3.7 0.4
v 0 3.7 0.3
v 0 3.7 -0.4
v 0 3.7 -0.5
v 0 3.8 0.6
v 0 3.8 0.5
v 0 3.8 0.4
v 0 3.8 0.3
v 0 3.8 -0.4
v 0 3.8 -0.5
v 0 4.4 0.4
v 0 4.4 0.3
v 0 4.4 -0.4
v 0 4.4 -0.5
v 0 4.5 0.4
v 0 4.5 0.3
v 0 4.5 -0.4
v 0 4.5 -0.5
v 0 5.1 0.4
v 0 5.1 0.3
v 0 5.1 -0.4
v 0 5.1 -0.5
v 0 5.2 0.4
v 0 5.2 0.3
v 0 5.2 -0.4
v 0 5.2 -0.5
v 0 5.8 0.4
v 0 5.8 0.3
v 0 5.8 -0.4
v 0 5.8 -0.5
v 0 5.9 0.4
v 0 5.9 0.3
v 0 5.9 -0.4
v 0 5.9 -0.5
v 0 6.5 0.4
v 0 6.5 0.3
v 0 6.5 -0.4
v 0 6.5 -0.5
v 0 6.6 0.4
v 0 6.6 0.3
v 0 6.6 -0.4
v 0 6.6 -0.5
v 0 6.9 0.6
v 0 6.9 0.4
v 0 6.9 -0.5
v 0 6.9 -0.7
v 0.1 0.2 0.4
v 0.1 0.2 0.3
v 0.1 0.2 -0.4
v 0.1 0.2 -0.5
v 0.1 0.3 0.4
v 0.1 0.3 0.3
v 0.1 0.3 -0.4
v 0.1 0.3 -0.5
v 0.1 0.9 0.4
v 0.1 0.9 0.3
v 0.1 0.9 -0.4
v 0.1 0.9 -0.5
v 0.1 1 0.4
v 0.1 1 0.3
v 0.1 1 -0.4
v 0.1 1 -0.5
v 0.1 1.6 0.4
v 0.1 1.6 0.3
v 0.1 1.6 -0.4
v 0.1 1.6 -0.5
v 0.1 1.7 0.4
v 0.1 1.7 0.3
v 0.1 1.7 -0.4
v 0.1 1.7 -0.5
v 0.1 2.3 0.4
v 0.1 2.3 0.3
v 0.1 2.3 -0.4
v 0.1 2.3 -0.5
v 0.1 2.4 0.4
v 0.1 2.4 0.3
v 0.1 2.4 -0.4
v 0.1 2.4 -0.5
v 0.1 3 0.4
v 0.1 3 0.3
v 0.1 3 -0.4
v 0.1 3 -0.5
v 0.1 3.1 0.4
v 0.1 3.1 0.3
v 0.1 3.1 -0.4
v 0.1 3.1 -0.5
v 0.1 3.7 0.4
v 0.1 3.7 0.3
v 0.1 3.7 -0.4
v 0.1 3.7 -0.5
v 0.1 3.8 0.4
v 0.1 3.8 0.3
v 0.1 3.8 -0.4
v 0.1 3.8 -0.5
v 0.1 4.4 0.4
v 0.1 4.4 0.3
v 0.1 4.4 -0.4
v 0.1 4.4 -0.5
v 0.1 4.5 0.4
v 0.1 4.5 0.3
v 0.1 4.5 -0.4
v 0.1 4.5 -0.5
v 0.1 5.1 0.4
v 0.1 5.1 0.3
v 0.1 5.1 -0.4
v 0.1 5.1 -0.5
v 0.1 5.2 0.4
v 0.1 5.2 0.3
v 0.1 5.2 -0.4
v 0.1 5.2 -0.5
v 0.1 5.8 0.4
v 0.1 5.8 0.3
v 0.1 5.8 -0.4
v 0.1 5.8 -0.5
v 0.1 5.9 0.4
v 0.1 5.9 0.3
v 0.1 5.9 -0.4
v 0.1 5.9 -0.5
v 0.1 6.5 0.4
v 0.1 6.5 0.3
v 0.1 6.5 -0.4
v 0.1 6.5 -0.5
v 0.1 6.6 0.4
v 0.1 6.6 0.3
v 0.1 6.6 -0.4
v 0.1 6.6 -0.5
v 0.2 0 0.6
v 0.2 0 0.5
v 0.2 0 0.4
v 0.2 0 -0.5
v 0.2 0 -0.7
v 0.2 0.2 0.6
v 0.2 0.2 0.5
v 0.2 0.2 -0.6
v 0.2 0.2 -0.7
v 0.2 3.5 -0.6
v 0.2 3.5 -0.7
v 0.2 3.8 -0.6
v 0.2 3.8 -0.7
v 0.2 4.3 -0.6
v 0.2 4.3 -0.7
v 0.2 6.6 0.6
v 0.2 6.6 0.5
v 0.2 6.9 0.6
v 0.2 6.9 0.5
v 0.2 6.9 0.4
v 0.2 6.9 -0.5
v 0.2 6.9 -0.7
v 0 0 0.6
v 0 0.2 0.6
v 0 3.8 0.6
v 0 6.9 0.6
v 0.1 0 0.6
v 0.1 0.2 0.6
v 0.1 3.8 0.6
v 0.1 6.6 0.6
v 0.1 6.9 0.6
v 0.2 0 0.6
v 0.2 0.2 0.6
v 0.2 6.6 0.6
v 0.2 6.9 0.6
v 0 0 -0.5
v 0 0.2 -0.5
v 0 0.3 -0.5
v 0 0.9 -0.5
v 0 1 -0.5
v 0 1.6 -0.5
v 0 1.7 -0.5
v 0 2.3 -0.5
v 0 2.4 -0.5
v 0 3 -0.5
v 0 3.1 -0.5
v 0 3.7 -0.5
v 0 3.8 -0.5
v 0 4.4 -0.5
v 0 4.5 -0.5
v 0 5.1 -0.5
v 0 5.2 -0.5
v 0 5.8 -0.5
v 0 5.9 -0.5
v 0 6.5 -0.5
v 0 6.6 -0.5
v 0 6.9 -0.5
v 0.1 0.2 -0.5
v 0.1 0.3 -0.5
v 0.1 0.9 -0.5
v 0.1 1 -0.5
v 0.1 1.6 -0.5
v 0.1 1.7 -0.5
v 0.1 2.3 -0.5
v 0.1 2.4 -0.5
v 0.1 3 -0.5
v 0.1 3.1 -0.5
v 0.1 3.7 -0.5
v 0.1 3.8 -0.5
v 0.1 4.4 -0.5
v 0.1 4.5 -0.5
v 0.1 5.1 -0.5
v 0.1 5.2 -0.5
v 0.1 5.8 -0.5
v 0.1 5.9 -0.5
v 0.1 6.5 -0.5
v 0.1 6.6 -0.5
v 0.2 0 -0.5
v 0.2 6.9 -0.5
v 0 0 0.4
v 0 0.2 0.4
v 0 0.3 0.4
v 0 0.9 0.4
v 0 1 0.4
v 0 1.6 0.4
v 0 1.7 0.4
v 0 2.3 0.4
v 0 2.4 0.4
v 0 3 0.4
v 0 3.1 0.4
v 0 3.7 0.4
v 0 3.8 0.4
v 0 4.4 0.4
v 0 4.5 0.4
v 0 5.1 0.4
v 0 5.2 0.4
v 0 5.8 0.4
v 0 5.9 0.4
v 0 6.5 0.4
v 0 6.6 0.4
v 0 6.9 0.4
v 0.1 0.2 0.4
v 0.1 0.3 0.4
v 0.1 0.9 0.4
v 0.1 1 0.4
v 0.1 1.6 0.4
v 0.1 1.7 0.4
v 0.1 2.3 0.4
v 0.1 2.4 0.4
v 0.1 3 0.4
v 0.1 3.1 0.4
v 0.1 3.7 0.4
v 0.1 3.8 0.4
v 0.1 4.4 0.4
v 0.1 4.5 0.4
v 0.1 5.1 0.4
v 0.1 5.2 0.4
v 0.1 5.8 0.4
v 0.1 5.9 0.4
v 0.1 6.5 0.4
v 0.1 6.6 0.4
v 0.2 0 0.4
v 0.2 6.9 0.4
v 0 0 -0.7
v 0 6.9 -0.7
v 0.1 0.2 -0.7
v 0.1 3.5 -0.7
v 0.1 3.8 -0.7
v 0.1 4.3 -0.7
v 0.2 0 -0.7
v 0.2 0.2 -0.7
v 0.2 3.5 -0.7
v 0.2 3.8 -0.7
v 0.2 4.3 -0.7
v 0.2 6.9 -0.7
v 0 0 0.6
v 0.1 0 0.6
v 0.2 0 0.6
v 0.1 0 0.5
v 0.2 0 0.5
v 0 0 0.4
v 0.2 0 0.4
v 0 0 -0.5
v 0.2 0 -0.5
v 0 0 -0.7
v 0.2 0 -0.7
v 0 0.2 0.4
v 0.1 0.2 0.4
v 0 0.2 0.3
v 0.1 0.2 0.3
v 0 0.2 -0.4
v 0.1 0.2 -0.4
v 0 0.2 -0.5
v 0.1 0.2 -0.5
v 0 0.9 0.4
v 0.1 0.9 0.4
v 0 0.9 0.3
v 0.1 0.9 0.3
v 0 0.9 -0.4
v 0.1 0.9 -0.4
v 0 0.9 -0.5
v 0.1 0.9 -0.5
v 0 1.6 0.4
v 0.1 1.6 0.4
v 0 1.6 0.3
v 0.1 1.6 0.3
v 0 1.6 -0.4
v 0.1 1.6 -0.4
v 0 1.6 -0.5
v 0.1 1.6 -0.5
v 0 2.3 0.4
v 0.1 2.3 0.4
v 0 2.3 0.3
v 0.1 2.3 0.3
v 0 2.3 -0.4
v 0.1 2.3 -0.4
v 0 2.3 -0.5
v 0.1 2.3 -0.5
v 0 3 0.4
v 0.1 3 0.4
v 0 3 0.3
v 0.1 3 0.3
v 0 3 -0.4
v 0.1 3 -0.4
v 0 3 -0.5
v 0.1 3 -0.5
v 0 3.7 0.4
v 0.1 3.7 0.4
v 0 3.7 0.3
v 0.1 3.7 0.3
v 0 3.7 -0.4
v 0.1 3.7 -0.4
v 0 3.7 -0.5
v 0.1 3.7 -0.5
v 0 4.4 0.4
v 0.1 4.4 0.4
v 0 4.4 0.3
v 0.1 4.4 0.3
v 0 4.4 -0.4
v 0.1 4.4 -0.4
v 0 4.4 -0.5
v 0.1 4.4 -0.5
v 0 5.1 0.4
v 0.1 5.1 0.4
v 0 5.1 0.3
v 0.1 5.1 0.3
v 0 5.1 -0.4
v 0.1 5.1 -0.4
v 0 5.1 -0.5
v 0.1 5.1 -0.5
v 0 5.8 0.4
v 0.1 5.8 0.4
v 0 5.8 0.3
v 0.1 5.8 0.3
v 0 5.8 -0.4
v 0.1 5.8 -0.4
v 0 5.8 -0.5
v 0.1 5.8 -0.5
v 0 6.5 0.4
v 0.1 6.5 0.4
v 0 6.5 0.3
v 0.1 6.5 0.3
v 0 6.5 -0.4
v 0.1 6.5 -0.4
v 0 6.5 -0.5
v 0.1 6.5 -0.5
v 0 0.3 0.4
v 0.1 0.3 0.4
v 0 0.3 0.3
v 0.1 0.3 0.3
v 0 0.3 -0.4
v 0.1 0.3 -0.4
v 0 0.3 -0.5
v 0.1 0.3 -0.5
v 0 1 0.4
v 0.1 1 0.4
v 0 1 0.3
v 0.1 1 0.3
v 0 1 -0.4
v 0.1 1 -0.4
v 0 1 -0.5
v 0.1 1 -0.5
v 0 1.7 0.4
v 0.1 1.7 0.4
v 0 1.7 0.3
v 0.1 1.7 0.3
v 0 1.7 -0.4
v 0.1 1.7 -0.4
v 0 1.7 -0.5
v 0.1 1.7 -0.5
v 0 2.4 0.4
v 0.1 2.4 0.4
v 0 2.4 0.3
v 0.1 2.4 0.3
v 0 2.4 -0.4
v 0.1 2.4 -0.4
v 0 2.4 -0.5
v 0.1 2.4 -0.5
v 0 3.1 0.4
v 0.1 3.1 0.4
v 0 3.1 0.3
v 0.1 3.1 0.3
v 0 3.1 -0.4
v 0.1 3.1 -0.4
v 0 3.1 -0.5
v 0.1 3.1 -0.5
v 0 3.8 0.4
v 0.1 3.8 0.4
v 0 3.8 0.3
v 0.1 3.8 0.3
v 0 3.8 -0.4
v 0.1 3.8 -0.4
v 0 3.8 -0.5
v 0.1 3.8 -0.5
v 0 4.5 0.4
v 0.1 4.5 0.4
v 0 4.5 0.3
v 0.1 4.5 0.3
v 0 4.5 -0.4
v 0.1 4.5 -0.4
v 0 4.5 -0.5
v 0.1 4.5 -0.5
v 0 5.2 0.4
v 0.1 5.2 0.4
v 0 5.2 0.3
v 0.1 5.2 0.3
v 0 5.2 -0.4
v 0.1 5.2 -0.4
v 0 5.2 -0.5
v 0.1 5.2 -0.5
v 0 5.9 0.4
v 0.1 5.9 0.4
v 0 5.9 0.3
v 0.1 5.9 0.3
v 0 5.9 -0.4
v 0.1 5.9 -0.4
v 0 5.9 -0.5
v 0.1 5.9 -0.5
v 0 6.6 0.4
v 0.1 6.6 0.4
v 0 6.6 0.3
v 0.1 6.6 0.3
v 0 6.6 -0.4
v 0.1 6.6 -0.4
v 0 6.6 -0.5
v 0.1 6.6 -0.5
v 0 6.9 0.6
v 0.1 6.9 0.6
v 0.2 6.9 0.6
v 0.1 6.9 0.5
v 0.2 6.9 0.5
v 0 6.9 0.4
v 0.2 6.9 0.4
v 0 6.9 -0.5
v 0.2 6.9 -0.5
v 0 6.9 -0.7
v 0.2 6.9 -0.7

# faces
f 5/1/1 2/1/1 1/1/1
f 6/1/1 2/1/1 5/1/1
f 7/1/1 2/1/1 6/1/1
f 10/1/1 4/1/1 3/1/1
f 11/1/1 7/1/1 6/1/1
f 11/2/1 8/2/1 7/2/1
f 12/1/1 9/1/1 8/1/1
f 12/2/1 8/2/1 11/2/1
f 13/2/1 10/2/1 9/2/1
f 13/1/1 9/1/1 12/1/1
f 14/1/1 4/1/1 10/1/1
f 14/2/1 10/2/1 13/2/1
f 15/1/1 11/1/1 6/1/1
f 18/1/1 4/1/1 14/1/1
f 19/1/1 15/1/1 6/1/1
f 19/2/1 16/2/1 15/2/1
f 20/1/1 17/1/1 16/1/1
f 20/2/1 16/2/1 19/2/1
f 21/2/1 18/2/1 17/2/1
f 21/1/1 17/1/1 20/1/1
f 22/1/1 4/1/1 18/1/1
f 22/2/1 18/2/1 21/2/1
f 23/1/1 19/1/1 6/1/1
f 26/1/1 4/1/1 22/1/1
f 27/1/1 23/1/1 6/1/1
f 27/2/1 24/2/1 23/2/1
f 28/1/1 25/1/1 24/1/1
f 28/2/1 24/2/1 27/2/1
f 29/2/1 26/2/1 25/2/1
f 29/1/1 25/1/1 28/1/1
f 30/1/1 4/1/1 26/1/1
f 30/2/1 26/2/1 29/2/1
f 31/1/1 27/1/1 6/1/1
f 34/1/1 4/1/1 30/1/1
f 35/1/1 31/1/1 6/1/1
f 35/2/1 32/2/1 31/2/1
f 36/1/1 33/1/1 32/1/1
f 36/2/1 32/2/1 35/2/1
f 37/2/1 34/2/1 33/2/1
f 37/1/1 33/1/1 36/1/1
f 38/1/1 4/1/1 34/1/1
f 38/2/1 34/2/1 37/2/1
f 39/1/1 35/1/1 6/1/1
f 42/1/1 4/1/1 38/1/1
f 43/1/1 39/1/1 6/1/1
f 43/2/1 40/2/1 39/2/1
f 44/1/1 41/1/1 40/1/1
f 44/2/1 40/2/1 43/2/1
f 45/2/1 42/2/1 41/2/1
f 45/1/1 41/1/1 44/1/1
f 46/1/1 4/1/1 42/1/1
f 46/2/1 42/2/1 45/2/1
f 47/1/1 43/1/1 6/1/1
f 50/1/1 4/1/1 46/1/1
f 51/2/1 6/2/1 5/2/1
f 52/1/1 47/1/1 6/1/1
f 52/2/1 6/2/1 51/2/1
f 53/2/1 48/2/1 47/2/1
f 53/1/1 47/1/1 52/1/1
f 54/1/1 49/1/1 48/1/1
f 54/2/1 48/2/1 53/2/1
f 55/2/1 50/2/1 49/2/1
f 55/1/1 49/1/1 54/1/1
f 56/1/1 4/1/1 50/1/1
f 56/2/1 50/2/1 55/2/1
f 57/1/1 53/1/1 52/1/1
f 57/1/1 52/1/1 51/1/1
f 60/1/1 4/1/1 56/1/1
f 61/1/1 57/1/1 51/1/1
f 61/2/1 58/2/1 57/2/1
f 62/1/1 59/1/1 58/1/1
f 62/2/1 58/2/1 61/2/1
f 63/2/1 60/2/1 59/2/1
f 63/1/1 59/1/1 62/1/1
f 64/1/1 4/1/1 60/1/1
f 64/2/1 60/2/1 63/2/1
f 65/1/1 61/1/1 51/1/1
f 68/1/1 4/1/1 64/1/1
f 69/1/1 65/1/1 51/1/1
f 69/2/1 66/2/1 65/2/1
f 70/1/1 67/1/1 66/1/1
f 70/2/1 66/2/1 69/2/1
f 71/2/1 68/2/1 67/2/1
f 71/1/1 67/1/1 70/1/1
f 72/1/1 4/1/1 68/1/1
f 72/2/1 68/2/1 71/2/1
f 73/1/1 69/1/1 51/1/1
f 76/1/1 4/1/1 72/1/1
f 77/1/1 73/1/1 51/1/1
f 77/2/1 74/2/1 73/2/1
f 78/1/1 75/1/1 74/1/1
f 78/2/1 74/2/1 77/2/1
f 79/2/1 76/2/1 75/2/1
f 79/1/1 75/1/1 78/1/1
f 80/1/1 4/1/1 76/1/1
f 80/2/1 76/2/1 79/2/1
f 81/1/1 77/1/1 51/1/1
f 84/1/1 4/1/1 80/1/1
f 85/1/1 81/1/1 51/1/1
f 85/2/1 82/2/1 81/2/1
f 86/1/1 83/1/1 82/1/1
f 86/2/1 82/2/1 85/2/1
f 87/2/1 84/2/1 83/2/1
f 87/1/1 83/1/1 86/1/1
f 88/1/1 4/1/1 84/1/1
f 88/2/1 84/2/1 87/2/1
f 89/1/1 85/1/1 51/1/1
f 90/1/1 85/1/1 89/1/1
f 91/1/1 4/1/1 88/1/1
f 92/1/1 4/1/1 91/1/1
f 93/2/2 94/2/2 97/2/2
f 94/1/2 95/1/2 98/1/2
f 97/2/2 94/2/2 98/2/2
f 95/2/2 96/2/2 99/2/2
f 98/1/2 95/1/2 99/1/2
f 99/2/2 96/2/2 100/2/2
f 101/2/2 102/2/2 105/2/2
f 102/1/2 103/1/2 106/1/2
f 105/2/2 102/2/2 106/2/2
f 103/2/2 104/2/2 107/2/2
f 106/1/2 103/1/2 107/1/2
f 107/2/2 104/2/2 108/2/2
f 109/2/2 110/2/2 113/2/2
f 110/1/2 111/1/2 114/1/2
f 113/2/2 110/2/2 114/2/2
f 111/2/2 112/2/2 115/2/2
f 114/1/2 111/1/2 115/1/2
f 115/2/2 112/2/2 116/2/2
f 117/2/2 118/2/2 121/2/2
f 118/1/2 119/1/2 122/1/2
f 121/2/2 118/2/2 122/2/2
f 119/2/2 120/2/2 123/2/2
f 122/1/2 119/1/2 123/1/2
f 123/2/2 120/2/2 124/2/2
f 125/2/2 126/2/2 129/2/2
f 126/1/2 127/1/2 130/1/2
f 129/2/2 126/2/2 130/2/2
f 127/2/2 128/2/2 131/2/2
f 130/1/2 127/1/2 131/1/2
f 131/2/2 128/2/2 132/2/2
f 133/2/2 134/2/2 137/2/2
f 134/1/2 135/1/2 138/1/2
f 137/2/2 134/2/2 138/2/2
f 135/2/2 136/2/2 139/2/2
f 138/1/2 135/1/2 139/1/2
f 139/2/2 136/2/2 140/2/2
f 141/2/2 142/2/2 145/2/2
f 142/1/2 143/1/2 146/1/2
f 145/2/2 142/2/2 146/2/2
f 143/2/2 144/2/2 147/2/2
f 146/1/2 143/1/2 147/1/2
f 147/2/2 144/2/2 148/2/2
f 149/2/2 150/2/2 153/2/2
f 150/1/2 151/1/2 154/1/2
f 153/2/2 150/2/2 154/2/2
f 151/2/2 152/2/2 155/2/2
f 154/1/2 151/1/2 155/1/2
f 155/2/2 152/2/2 156/2/2
f 157/2/2 158/2/2 161/2/2
f 158/1/2 159/1/2 162/1/2
f 161/2/2 158/2/2 162/2/2
f 159/2/2 160/2/2 163/2/2
f 162/1/2 159/1/2 163/1/2
f 163/2/2 160/2/2 164/2/2
f 165/2/2 166/2/2 169/2/2
f 166/1/2 167/1/2 170/1/2
f 169/2/2 166/2/2 170/2/2
f 167/2/2 168/2/2 171/2/2
f 170/1/2 167/1/2 171/1/2
f 171/2/2 168/2/2 172/2/2
f 173/2/2 174/2/2 178/2/2
f 174/1/2 175/1/2 179/1/2
f 178/2/2 174/2/2 179/2/2
f 176/1/2 177/1/2 180/1/2
f 180/1/2 177/1/2 181/1/2
f 176/1/2 180/1/2 182/1/2
f 180/2/2 181/2/2 182/2/2
f 182/2/2 181/2/2 183/2/2
f 176/1/2 182/1/2 184/1/2
f 182/1/2 183/1/2 184/1/2
f 184/1/2 183/1/2 185/1/2
f 176/1/2 184/1/2 186/1/2
f 184/2/2 185/2/2 186/2/2
f 186/2/2 185/2/2 187/2/2
f 178/1/2 179/1/2 188/1/2
f 179/1/2 175/1/2 189/1/2
f 188/1/2 179/1/2 189/1/2
f 188/2/2 189/2/2 190/2/2
f 189/1/2 175/1/2 191/1/2
f 190/2/2 189/2/2 191/2/2
f 191/1/2 175/1/2 192/1/2
f 176/1/2 186/1/2 193/1/2
f 186/1/2 187/1/2 193/1/2
f 193/1/2 187/1/2 194/1/2
f 199/1/3 196/1/3 195/1/3
f 200/2/3 197/2/3 196/2/3
f 200/1/3 196/1/3 199/1/3
f 201/1/3 198/1/3 197/1/3
f 201/2/3 197/2/3 200/2/3
f 202/1/3 198/1/3 201/1/3
f 203/1/3 198/1/3 202/1/3
f 204/2/3 200/2/3 199/2/3
f 205/1/3 201/1/3 200/1/3
f 205/2/3 200/2/3 204/2/3
f 205/1/3 202/1/3 201/1/3
f 206/2/3 203/2/3 202/2/3
f 206/1/3 202/1/3 205/1/3
f 207/2/3 203/2/3 206/2/3
f 230/1/3 209/1/3 208/1/3
f 231/1/3 211/1/3 210/1/3
f 232/1/3 211/1/3 231/1/3
f 233/1/3 213/1/3 212/1/3
f 234/1/3 213/1/3 233/1/3
f 235/1/3 215/1/3 214/1/3
f 236/1/3 215/1/3 235/1/3
f 237/1/3 217/1/3 216/1/3
f 238/1/3 217/1/3 237/1/3
f 239/1/3 219/1/3 218/1/3
f 240/1/3 219/1/3 239/1/3
f 241/1/3 221/1/3 220/1/3
f 242/1/3 221/1/3 241/1/3
f 243/1/3 223/1/3 222/1/3
f 244/1/3 223/1/3 243/1/3
f 245/1/3 225/1/3 224/1/3
f 246/1/3 225/1/3 245/1/3
f 247/1/3 227/1/3 226/1/3
f 248/1/3 227/1/3 247/1/3
f 249/1/3 229/1/3 228/1/3
f 250/1/3 248/1/3 247/1/3
f 250/1/3 249/1/3 248/1/3
f 250/1/3 230/1/3 208/1/3
f 250/1/3 232/1/3 231/1/3
f 250/1/3 247/1/3 246/1/3
f 250/1/3 234/1/3 233/1/3
f 250/1/3 245/1/3 244/1/3
f 250/1/3 236/1/3 235/1/3
f 250/1/3 243/1/3 242/1/3
f 250/1/3 238/1/3 237/1/3
f 250/1/3 241/1/3 240/1/3
f 250/1/3 240/1/3 239/1/3
f 250/1/3 239/1/3 238/1/3
f 250/1/3 242/1/3 241/1/3
f 250/1/3 237/1/3 236/1/3
f 250/1/3 244/1/3 243/1/3
f 250/1/3 235/1/3 234/1/3
f 250/1/3 246/1/3 245/1/3
f 250/1/3 233/1/3 232/1/3
f 250/1/3 231/1/3 230/1/3
f 251/1/3 229/1/3 249/1/3
f 251/1/3 249/1/3 250/1/3
f 252/1/4 253/1/4 274/1/4
f 254/1/4 255/1/4 275/1/4
f 275/1/4 255/1/4 276/1/4
f 256/1/4 257/1/4 277/1/4
f 277/1/4 257/1/4 278/1/4
f 258/1/4 259/1/4 279/1/4
f 279/1/4 259/1/4 280/1/4
f 260/1/4 261/1/4 281/1/4
f 281/1/4 261/1/4 282/1/4
f 262/1/4 263/1/4 283/1/4
f 283/1/4 263/1/4 284/1/4
f 264/1/4 265/1/4 285/1/4
f 285/1/4 265/1/4 286/1/4
f 266/1/4 267/1/4 287/1/4
f 287/1/4 267/1/4 288/1/4
f 268/1/4 269/1/4 289/1/4
f 289/1/4 269/1/4 290/1/4
f 270/1/4 271/1/4 291/1/4
f 291/1/4 271/1/4 292/1/4
f 272/1/4 273/1/4 293/1/4
f 291/1/4 292/1/4 294/1/4
f 292/1/4 293/1/4 294/1/4
f 252/1/4 274/1/4 294/1/4
f 275/1/4 276/1/4 294/1/4
f 290/1/4 291/1/4 294/1/4
f 277/1/4 278/1/4 294/1/4
f 288/1/4 289/1/4 294/1/4
f 279/1/4 280/1/4 294/1/4
f 286/1/4 287/1/4 294/1/4
f 281/1/4 282/1/4 294/1/4
f 284/1/4 285/1/4 294/1/4
f 283/1/4 284/1/4 294/1/4
f 282/1/4 283/1/4 294/1/4
f 285/1/4 286/1/4 294/1/4
f 280/1/4 281/1/4 294/1/4
f 287/1/4 288/1/4 294/1/4
f 278/1/4 279/1/4 294/1/4
f 289/1/4 290/1/4 294/1/4
f 276/1/4 277/1/4 294/1/4
f 274/1/4 275/1/4 294/1/4
f 293/1/4 273/1/4 295/1/4
f 294/1/4 293/1/4 295/1/4
f 296/1/4 297/1/4 298/1/4
f 298/1/4 297/1/4 299/1/4
f 299/1/4 297/1/4 300/1/4
f 300/1/4 297/1/4 301/1/4
f 296/1/4 298/1/4 302/1/4
f 298/2/4 299/2/4 303/2/4
f 302/1/4 298/1/4 303/1/4
f 299/1/4 300/1/4 304/1/4
f 303/2/4 299/2/4 304/2/4
f 300/2/4 301/2/4 305/2/4
f 304/1/4 300/1/4 305/1/4
f 301/1/4 297/1/4 306/1/4
f 305/2/4 301/2/4 306/2/4
f 306/1/4 297/1/4 307/1/4
f 311/1/5 309/1/5 308/1/5
f 311/2/5 310/2/5 309/2/5
f 312/2/5 310/2/5 311/2/5
f 313/1/5 311/1/5 308/1/5
f 313/1/5 312/1/5 311/1/5
f 314/1/5 312/1/5 313/1/5
f 317/1/5 316/1/5 315/1/5
f 318/1/5 316/1/5 317/1/5
f 321/2/5 320/2/5 319/2/5
f 322/2/5 320/2/5 321/2/5
f 323/1/5 322/1/5 321/1/5
f 324/1/5 322/1/5 323/1/5
f 325/2/5 324/2/5 323/2/5
f 326/2/5 324/2/5 325/2/5
f 329/2/5 328/2/5 327/2/5
f 330/2/5 328/2/5 329/2/5
f 331/1/5 330/1/5 329/1/5
f 332/1/5 330/1/5 331/1/5
f 333/2/5 332/2/5 331/2/5
f 334/2/5 332/2/5 333/2/5
f 337/2/5 336/2/5 335/2/5
f 338/2/5 336/2/5 337/2/5
f 339/1/5 338/1/5 337/1/5
f 340/1/5 338/1/5 339/1/5
f 341/2/5 340/2/5 339/2/5
f 342/2/5 340/2/5 341/2/5
f 345/2/5 344/2/5 343/2/5
f 346/2/5 344/2/5 345/2/5
f 347/1/5 346/1/5 345/1/5
f 348/1/5 346/1/5 347/1/5
f 349/2/5 348/2/5 347/2/5
f 350/2/5 348/2/5 349/2/5
f 353/2/5 352/2/5 351/2/5
f 354/2/5 352/2/5 353/2/5
f 355/1/5 354/1/5 353/1/5
f 356/1/5 354/1/5 355/1/5
f 357/2/5 356/2/5 355/2/5
f 358/2/5 356/2/5 357/2/5
f 361/2/5 360/2/5 359/2/5
f 362/2/5 360/2/5 361/2/5
f 363/1/5 362/1/5 361/1/5
f 364/1/5 362/1/5 363/1/5
f 365/2/5 364/2/5 363/2/5
f 366/2/5 364/2/5 365/2/5
f 369/2/5 368/2/5 367/2/5
f 370/2/5 368/2/5 369/2/5
f 371/1/5 370/1/5 369/1/5
f 372/1/5 370/1/5 371/1/5
f 373/2/5 372/2/5 371/2/5
f 374/2/5 372/2/5 373/2/5
f 377/2/5 376/2/5 375/2/5
f 378/2/5 376/2/5 377/2/5
f 379/1/5 378/1/5 377/1/5
f 380/1/5 378/1/5 379/1/5
f 381/2/5 380/2/5 379/2/5
f 382/2/5 380/2/5 381/2/5
f 385/2/5 384/2/5 383/2/5
f 386/2/5 384/2/5 385/2/5
f 387/1/5 386/1/5 385/1/5
f 388/1/5 386/1/5 387/1/5
f 389/2/5 388/2/5 387/2/5
f 390/2/5 388/2/5 389/2/5
f 393/2/5 392/2/5 391/2/5
f 394/2/5 392/2/5 393/2/5
f 395/1/5 394/1/5 393/1/5
f 396/1/5 394/1/5 395/1/5
f 397/2/5 396/2/5 395/2/5
f 398/2/5 396/2/5 397/2/5
f 399/2/6 400/2/6 401/2/6
f 401/2/6 400/2/6 402/2/6
f 401/1/6 402/1/6 403/1/6
f 403/1/6 402/1/6 404/1/6
f 403/2/6 404/2/6 405/2/6
f 405/2/6 404/2/6 406/2/6
f 407/2/6 408/2/6 409/2/6
f 409/2/6 408/2/6 410/2/6
f 409/1/6 410/1/6 411/1/6
f 411/1/6 410/1/6 412/1/6
f 411/2/6 412/2/6 413/2/6
f 413/2/6 412/2/6 414/2/6
f 415/2/6 416/2/6 417/2/6
f 417/2/6 416/2/6 418/2/6
f 417/1/6 418/1/6 419/1/6
f 419/1/6 418/1/6 420/1/6
f 419/2/6 420/2/6 421/2/6
f 421/2/6 420/2/6 422/2/6
f 423/2/6 424/2/6 425/2/6
f 425/2/6 424/2/6 426/2/6
f 425/1/6 426/1/6 427/1/6
f 427/1/6 426/1/6 428/1/6
f 427/2/6 428/2/6 429/2/6
f 429/2/6 428/2/6 430/2/6
f 431/2/6 432/2/6 433/2/6
f 433/2/6 432/2/6 434/2/6
f 433/1/6 434/1/6 435/1/6
f 435/1/6 434/1/6 436/1/6
f 435/2/6 436/2/6 437/2/6
f 437/2/6 436/2/6 438/2/6
f 439/2/6 440/2/6 441/2/6
f 441/2/6 440/2/6 442/2/6
f 441/1/6 442/1/6 443/1/6
f 443/1/6 442/1/6 444/1/6
f 443/2/6 444/2/6 445/2/6
f 445/2/6 444/2/6 446/2/6
f 447/2/6 448/2/6 449/2/6
f 449/2/6 448/2/6 450/2/6
f 449/1/6 450/1/6 451/1/6
f 451/1/6 450/1/6 452/1/6
f 451/2/6 452/2/6 453/2/6
f 453/2/6 452/2/6 454/2/6
f 455/2/6 456/2/6 457/2/6
f 457/2/6 456/2/6 458/2/6
f 457/1/6 458/1/6 459/1/6
f 459/1/6 458/1/6 460/1/6
f 459/2/6 460/2/6 461/2/6
f 461/2/6 460/2/6 462/2/6
f 463/2/6 464/2/6 465/2/6
f 465/2/6 464/2/6 466/2/6
f 465/1/6 466/1/6 467/1/6
f 467/1/6 466/1/6 468/1/6
f 467/2/6 468/2/6 469/2/6
f 469/2/6 468/2/6 470/2/6
f 471/2/6 472/2/6 473/2/6
f 473/2/6 472/2/6 474/2/6
f 473/1/6 474/1/6 475/1/6
f 475/1/6 474/1/6 476/1/6
f 475/2/6 476/2/6 477/2/6
f 477/2/6 476/2/6 478/2/6
f 479/1/6 480/1/6 482/1/6
f 480/2/6 481/2/6 482/2/6
f 482/2/6 481/2/6 483/2/6
f 479/1/6 482/1/6 484/1/6
f 482/1/6 483/1/6 484/1/6
f 484/1/6 483/1/6 485/1/6
f 486/1/6 487/1/6 488/1/6
f 488/1/6 487/1/6 489/1/6
