# Blender v2.82 (sub 7) OBJ File: 'MedievalSceneExport.blend'
# www.blender.org
mtllib Sword.mtl
o Sword_ObjObject.048
v -1.152698 -0.002504 -0.050001
v -1.152698 0.097496 0.049999
v -1.152698 0.097496 -0.050001
v -1.152698 -0.002504 0.049999
v -0.852698 -0.002504 -0.150001
v -0.852698 0.097496 -0.050001
v -0.852698 0.097496 -0.150001
v -0.852698 -0.002504 -0.050001
v -0.852698 -0.002504 0.049999
v -0.852698 0.097496 0.149999
v -0.852698 0.097496 0.049999
v -0.852698 -0.002504 0.149999
v 0.547302 -0.002504 -0.350001
v 0.547302 0.097496 -0.250001
v 0.547302 0.097496 -0.350001
v 0.547302 -0.002504 -0.250001
v 0.547302 0.097496 -0.050001
v 0.547302 -0.002504 -0.050001
v 0.547302 -0.002504 0.049999
v 0.547302 0.097496 0.249999
v 0.547302 0.097496 0.049999
v 0.547302 -0.002504 0.249999
v 0.547302 0.097496 0.349999
v 0.547302 -0.002504 0.349999
v 1.047302 -0.002504 -0.150001
v 1.047302 0.097496 -0.050001
v 1.047302 0.097496 -0.150001
v 1.047302 -0.002504 -0.050001
v 1.047302 -0.002504 0.049999
v 1.047302 0.097496 0.149999
v 1.047302 0.097496 0.049999
v 1.047302 -0.002504 0.149999
v 0.447302 0.097496 -0.150001
v 0.447302 0.097496 -0.050001
v 0.447302 -0.002504 -0.150001
v 0.447302 -0.002504 -0.050001
v 0.447302 0.097496 0.049999
v 0.447302 0.097496 0.149999
v 0.447302 -0.002504 0.049999
v 0.447302 -0.002504 0.149999
v 0.647303 0.097496 -0.350001
v 0.647303 0.097496 -0.250001
v 0.647303 -0.002504 -0.350001
v 0.647303 0.097496 -0.050001
v 0.647303 -0.002504 -0.250001
v 0.647303 -0.002504 -0.050001
v 0.647303 0.097496 0.049999
v 0.647303 0.097496 0.249999
v 0.647303 -0.002504 0.049999
v 0.647303 0.097496 0.349999
v 0.647303 -0.002504 0.249999
v 0.647303 -0.002504 0.349999
v 1.147303 0.097496 -0.150001
v 1.147303 0.097496 0.149999
v 1.147303 -0.002504 -0.150001
v 1.147303 -0.002504 0.149999
v 0.647303 0.097496 -0.350001
v 0.547302 -0.002504 -0.350001
v 0.547302 0.097496 -0.350001
v 0.647303 -0.002504 -0.350001
v -0.452698 0.097496 -0.150001
v -0.852698 -0.002504 -0.150001
v -0.852698 0.097496 -0.150001
v -0.452698 -0.002504 -0.150001
v -0.252697 0.097496 -0.150001
v -0.252697 -0.002504 -0.150001
v 0.247302 0.097496 -0.150001
v 0.247302 -0.002504 -0.150001
v 0.347302 0.097496 -0.150001
v 0.347302 -0.002504 -0.150001
v 0.447302 0.097496 -0.150001
v 0.447302 -0.002504 -0.150001
v 1.147303 0.097496 -0.150001
v 1.047302 -0.002504 -0.150001
v 1.047302 0.097496 -0.150001
v 1.147303 -0.002504 -0.150001
v -1.052697 0.097496 -0.050001
v -1.152698 -0.002504 -0.050001
v -1.152698 0.097496 -0.050001
v -1.052697 -0.002504 -0.050001
v -0.852698 0.097496 -0.050001
v -0.852698 -0.002504 -0.050001
v 0.547302 0.097496 -0.050001
v 0.447302 -0.002504 -0.050001
v 0.447302 0.097496 -0.050001
v 0.547302 -0.002504 -0.050001
v 1.047302 0.097496 -0.050001
v 0.647303 -0.002504 -0.050001
v 0.647303 0.097496 -0.050001
v 1.047302 -0.002504 -0.050001
v -1.152698 0.097496 0.049999
v -1.152698 -0.002504 0.049999
v -1.052697 0.097496 0.049999
v -1.052697 -0.002504 0.049999
v -0.852698 0.097496 0.049999
v -0.852698 -0.002504 0.049999
v 0.447302 0.097496 0.049999
v 0.447302 -0.002504 0.049999
v 0.547302 0.097496 0.049999
v 0.547302 -0.002504 0.049999
v 0.647303 0.097496 0.049999
v 0.647303 -0.002504 0.049999
v 1.047302 0.097496 0.049999
v 1.047302 -0.002504 0.049999
v -0.852698 0.097496 0.149999
v -0.852698 -0.002504 0.149999
v -0.552698 0.097496 0.149999
v -0.552698 -0.002504 0.149999
v -0.352697 0.097496 0.149999
v -0.352697 -0.002504 0.149999
v 0.247302 0.097496 0.149999
v 0.247302 -0.002504 0.149999
v 0.347302 0.097496 0.149999
v 0.347302 -0.002504 0.149999
v 0.447302 0.097496 0.149999
v 0.447302 -0.002504 0.149999
v 1.047302 0.097496 0.149999
v 1.047302 -0.002504 0.149999
v 1.147303 0.097496 0.149999
v 1.147303 -0.002504 0.149999
v 0.547302 0.097496 0.349999
v 0.547302 -0.002504 0.349999
v 0.647303 0.097496 0.349999
v 0.647303 -0.002504 0.349999
v 0.547302 0.097496 -0.250001
v 0.647303 0.097496 -0.350001
v 0.547302 0.097496 -0.350001
v 0.647303 0.097496 -0.250001
v -0.852698 0.097496 -0.050001
v -0.452698 0.097496 -0.150001
v -0.852698 0.097496 -0.150001
v -0.452698 0.097496 -0.050001
v -0.252697 0.097496 -0.150001
v -0.252697 0.097496 -0.050001
v 0.247302 0.097496 -0.150001
v 0.247302 0.097496 -0.050001
v 0.347302 0.097496 -0.150001
v 0.347302 0.097496 -0.050001
v 0.447302 0.097496 -0.150001
v 0.447302 0.097496 -0.050001
v 0.547302 0.097496 -0.050001
v 0.647303 0.097496 -0.050001
v 1.047302 0.097496 -0.050001
v 1.147303 0.097496 -0.150001
v 1.047302 0.097496 -0.150001
v -1.152698 0.097496 0.049999
v -1.052697 0.097496 -0.050001
v -1.152698 0.097496 -0.050001
v -1.052697 0.097496 0.049999
v -0.852698 0.097496 0.049999
v -0.552698 0.097496 0.049999
v -0.352697 0.097496 0.049999
v 0.247302 0.097496 0.049999
v 0.347302 0.097496 0.049999
v 0.447302 0.097496 0.049999
v 0.547302 0.097496 0.049999
v 0.647303 0.097496 0.049999
v 1.047302 0.097496 0.049999
v -0.852698 0.097496 0.149999
v -0.552698 0.097496 0.149999
v -0.352697 0.097496 0.149999
v 0.247302 0.097496 0.149999
v 0.347302 0.097496 0.149999
v 0.447302 0.097496 0.149999
v 1.047302 0.097496 0.149999
v 1.147303 0.097496 0.149999
v 0.547302 0.097496 0.249999
v 0.647303 0.097496 0.249999
v 0.547302 0.097496 0.349999
v 0.647303 0.097496 0.349999
v 0.547302 -0.002504 -0.350001
v 0.647303 -0.002504 -0.350001
v 0.547302 -0.002504 -0.250001
v 0.647303 -0.002504 -0.250001
v -0.852698 -0.002504 -0.150001
v -0.452698 -0.002504 -0.150001
v -0.852698 -0.002504 -0.050001
v -0.252697 -0.002504 -0.150001
v -0.452698 -0.002504 -0.050001
v 0.247302 -0.002504 -0.150001
v -0.252697 -0.002504 -0.050001
v 0.347302 -0.002504 -0.150001
v 0.247302 -0.002504 -0.050001
v 0.447302 -0.002504 -0.150001
v 0.347302 -0.002504 -0.050001
v 0.447302 -0.002504 -0.050001
v 0.547302 -0.002504 -0.050001
v 0.647303 -0.002504 -0.050001
v 1.047302 -0.002504 -0.150001
v 1.147303 -0.002504 -0.150001
v 1.047302 -0.002504 -0.050001
v -1.152698 -0.002504 -0.050001
v -1.052697 -0.002504 -0.050001
v -1.152698 -0.002504 0.049999
v -1.052697 -0.002504 0.049999
v -0.852698 -0.002504 0.049999
v -0.552698 -0.002504 0.049999
v -0.352697 -0.002504 0.049999
v 0.247302 -0.002504 0.049999
v 0.347302 -0.002504 0.049999
v 0.447302 -0.002504 0.049999
v 0.547302 -0.002504 0.049999
v 0.647303 -0.002504 0.049999
v 1.047302 -0.002504 0.049999
v -0.852698 -0.002504 0.149999
v -0.552698 -0.002504 0.149999
v -0.352697 -0.002504 0.149999
v 0.247302 -0.002504 0.149999
v 0.347302 -0.002504 0.149999
v 0.447302 -0.002504 0.149999
v 1.047302 -0.002504 0.149999
v 1.147303 -0.002504 0.149999
v 0.547302 -0.002504 0.249999
v 0.647303 -0.002504 0.249999
v 0.547302 -0.002504 0.349999
v 0.647303 -0.002504 0.349999
vt 0.982422 0.500000
vt 0.982422 0.500000
vt 0.982422 0.500000
vt 0.982422 0.500000
vt 0.974609 0.500000
vt 0.974609 0.500000
vt 0.974609 0.500000
vt 0.974609 0.500000
vt 0.974609 0.500000
vt 0.974609 0.500000
vt 0.974609 0.500000
vt 0.974609 0.500000
vt 0.978516 0.500000
vt 0.978516 0.500000
vt 0.978516 0.500000
vt 0.974609 0.500000
vt 0.974609 0.500000
vt 0.974609 0.500000
vt 0.978516 0.500000
vt 0.974609 0.500000
vt 0.974609 0.500000
vt 0.974609 0.500000
vt 0.974609 0.500000
vt 0.978516 0.500000
vt 0.978516 0.500000
vt 0.978516 0.500000
vt 0.974609 0.500000
vt 0.978516 0.500000
vt 0.982422 0.500000
vt 0.982422 0.500000
vt 0.982422 0.500000
vt 0.982422 0.500000
vt 0.982422 0.500000
vt 0.982422 0.500000
vt 0.982422 0.500000
vt 0.982422 0.500000
vt 0.978516 0.500000
vt 0.978516 0.500000
vt 0.978516 0.500000
vt 0.978516 0.500000
vt 0.978516 0.500000
vt 0.978516 0.500000
vt 0.978516 0.500000
vt 0.978516 0.500000
vt 0.978516 0.500000
vt 0.978516 0.500000
vt 0.978516 0.500000
vt 0.974609 0.500000
vt 0.974609 0.500000
vt 0.974609 0.500000
vt 0.978516 0.500000
vt 0.974609 0.500000
vt 0.974609 0.500000
vt 0.974609 0.500000
vt 0.974609 0.500000
vt 0.978516 0.500000
vt 0.978516 0.500000
vt 0.978516 0.500000
vt 0.974609 0.500000
vt 0.978516 0.500000
vt 0.982422 0.500000
vt 0.982422 0.500000
vt 0.982422 0.500000
vt 0.982422 0.500000
vt 0.978516 0.500000
vt 0.978516 0.500000
vt 0.978516 0.500000
vt 0.978516 0.500000
vt 0.974609 0.500000
vt 0.974609 0.500000
vt 0.974609 0.500000
vt 0.974609 0.500000
vt 0.982422 0.500000
vt 0.982422 0.500000
vt 0.982422 0.500000
vt 0.982422 0.500000
vt 0.974609 0.500000
vt 0.974609 0.500000
vt 0.974609 0.500000
vt 0.974609 0.500000
vt 0.982422 0.500000
vt 0.982422 0.500000
vt 0.982422 0.500000
vt 0.982422 0.500000
vt 0.978516 0.500000
vt 0.978516 0.500000
vt 0.978516 0.500000
vt 0.978516 0.500000
vt 0.982422 0.500000
vt 0.982422 0.500000
vt 0.982422 0.500000
vt 0.982422 0.500000
vt 0.982422 0.500000
vt 0.982422 0.500000
vt 0.982422 0.500000
vt 0.982422 0.500000
vt 0.974609 0.500000
vt 0.974609 0.500000
vt 0.974609 0.500000
vt 0.974609 0.500000
vt 0.978516 0.500000
vt 0.978516 0.500000
vt 0.978516 0.500000
vt 0.978516 0.500000
vt 0.017578 0.500000
vt 0.017578 0.500000
vt 0.017578 0.500000
vt 0.017578 0.500000
vt 0.982422 0.500000
vt 0.982422 0.500000
vt 0.982422 0.500000
vt 0.982422 0.500000
vt 0.974609 0.500000
vt 0.974609 0.500000
vt 0.974609 0.500000
vt 0.974609 0.500000
vt 0.978516 0.500000
vt 0.978516 0.500000
vt 0.978516 0.500000
vt 0.978516 0.500000
vt 0.017578 0.500000
vt 0.017578 0.500000
vt 0.017578 0.500000
vt 0.017578 0.500000
vt 0.974609 0.500000
vt 0.974609 0.500000
vt 0.974609 0.500000
vt 0.974609 0.500000
vt 0.982422 0.500000
vt 0.982422 0.500000
vt 0.982422 0.500000
vt 0.982422 0.500000
vt 0.974609 0.500000
vt 0.974609 0.500000
vt 0.974609 0.500000
vt 0.974609 0.500000
vt 0.982422 0.500000
vt 0.982422 0.500000
vt 0.982422 0.500000
vt 0.982422 0.500000
vt 0.978516 0.500000
vt 0.978516 0.500000
vt 0.978516 0.500000
vt 0.978516 0.500000
vt 0.982422 0.500000
vt 0.982422 0.500000
vt 0.982422 0.500000
vt 0.982422 0.500000
vt 0.978516 0.500000
vt 0.978516 0.500000
vt 0.978516 0.500000
vt 0.978516 0.500000
vt 0.978516 0.500000
vt 0.978516 0.500000
vt 0.978516 0.500000
vt 0.978516 0.500000
vt 0.974609 0.500000
vt 0.974609 0.500000
vt 0.974609 0.500000
vt 0.982422 0.500000
vt 0.982422 0.500000
vt 0.982422 0.500000
vt 0.974609 0.500000
vt 0.974609 0.500000
vt 0.974609 0.500000
vt 0.974609 0.500000
vt 0.982422 0.500000
vt 0.982422 0.500000
vt 0.982422 0.500000
vt 0.982422 0.500000
vt 0.974609 0.500000
vt 0.978516 0.500000
vt 0.978516 0.500000
vt 0.978516 0.500000
vt 0.982422 0.500000
vt 0.978516 0.500000
vt 0.974609 0.500000
vt 0.974609 0.500000
vt 0.974609 0.500000
vt 0.974609 0.500000
vt 0.982422 0.500000
vt 0.982422 0.500000
vt 0.982422 0.500000
vt 0.982422 0.500000
vt 0.982422 0.500000
vt 0.982422 0.500000
vt 0.974609 0.500000
vt 0.974609 0.500000
vt 0.982422 0.500000
vt 0.978516 0.500000
vt 0.974609 0.500000
vt 0.978516 0.500000
vt 0.978516 0.500000
vt 0.978516 0.500000
vt 0.978516 0.500000
vt 0.978516 0.500000
vt 0.978516 0.500000
vt 0.978516 0.500000
vt 0.978516 0.500000
vt 0.978516 0.500000
vt 0.978516 0.500000
vt 0.978516 0.500000
vt 0.978516 0.500000
vt 0.017578 0.500000
vt 0.017578 0.500000
vt 0.017578 0.500000
vt 0.978516 0.500000
vt 0.982422 0.500000
vt 0.017578 0.500000
vt 0.974609 0.500000
vt 0.974609 0.500000
vt 0.982422 0.500000
vt 0.982422 0.500000
vt 0.982422 0.500000
vt 0.974609 0.500000
vt 0.974609 0.500000
vt 0.974609 0.500000
vt 0.974609 0.500000
vt 0.982422 0.500000
vt 0.982422 0.500000
vt 0.982422 0.500000
vt 0.982422 0.500000
vt 0.974609 0.500000
vt 0.978516 0.500000
vt 0.982422 0.500000
vt 0.978516 0.500000
vt 0.982422 0.500000
vt 0.982422 0.500000
vt 0.974609 0.500000
vt 0.974609 0.500000
vt 0.974609 0.500000
vt 0.974609 0.500000
vt 0.978516 0.500000
vt 0.978516 0.500000
vt 0.978516 0.500000
vt 0.978516 0.500000
vt 0.978516 0.500000
vt 0.978516 0.500000
vt 0.978516 0.500000
vt 0.978516 0.500000
vt 0.974609 0.500000
vt 0.974609 0.500000
vt 0.974609 0.500000
vt 0.982422 0.500000
vt 0.982422 0.500000
vt 0.982422 0.500000
vt 0.974609 0.500000
vt 0.974609 0.500000
vt 0.974609 0.500000
vt 0.974609 0.500000
vt 0.982422 0.500000
vt 0.982422 0.500000
vt 0.982422 0.500000
vt 0.982422 0.500000
vt 0.974609 0.500000
vt 0.978516 0.500000
vt 0.978516 0.500000
vt 0.978516 0.500000
vt 0.982422 0.500000
vt 0.978516 0.500000
vt 0.974609 0.500000
vt 0.974609 0.500000
vt 0.974609 0.500000
vt 0.974609 0.500000
vt 0.982422 0.500000
vt 0.982422 0.500000
vt 0.982422 0.500000
vt 0.982422 0.500000
vt 0.982422 0.500000
vt 0.982422 0.500000
vt 0.974609 0.500000
vt 0.974609 0.500000
vt 0.982422 0.500000
vt 0.978516 0.500000
vt 0.974609 0.500000
vt 0.978516 0.500000
vt 0.978516 0.500000
vt 0.978516 0.500000
vt 0.978516 0.500000
vt 0.978516 0.500000
vt 0.978516 0.500000
vt 0.978516 0.500000
vt 0.978516 0.500000
vt 0.978516 0.500000
vt 0.978516 0.500000
vt 0.978516 0.500000
vt 0.978516 0.500000
vt 0.017578 0.500000
vt 0.017578 0.500000
vt 0.017578 0.500000
vt 0.978516 0.500000
vt 0.982422 0.500000
vt 0.017578 0.500000
vt 0.974609 0.500000
vt 0.974609 0.500000
vt 0.982422 0.500000
vt 0.982422 0.500000
vt 0.982422 0.500000
vt 0.974609 0.500000
vt 0.974609 0.500000
vt 0.974609 0.500000
vt 0.974609 0.500000
vt 0.982422 0.500000
vt 0.982422 0.500000
vt 0.982422 0.500000
vt 0.982422 0.500000
vt 0.974609 0.500000
vt 0.978516 0.500000
vt 0.982422 0.500000
vt 0.978516 0.500000
vt 0.982422 0.500000
vt 0.982422 0.500000
vt 0.974609 0.500000
vt 0.974609 0.500000
vt 0.974609 0.500000
vt 0.974609 0.500000
vt 0.978516 0.500000
vt 0.978516 0.500000
vt 0.978516 0.500000
vt 0.978516 0.500000
vn -1.0000 0.0000 0.0000
vn 1.0000 0.0000 0.0000
vn 0.0000 0.0000 -1.0000
vn 0.0000 -0.0000 1.0000
vn 0.0000 1.0000 0.0000
vn 0.0000 -1.0000 -0.0000
usemtl palette.054
s 1
f 1/1/1 2/2/1 3/3/1
f 4/4/1 2/2/1 1/1/1
f 5/5/1 6/6/1 7/7/1
f 8/8/1 6/6/1 5/5/1
f 9/9/1 10/10/1 11/11/1
f 12/12/1 10/10/1 9/9/1
f 13/13/1 14/14/1 15/15/1
f 16/16/1 17/17/1 14/18/1
f 16/19/1 14/14/1 13/13/1
f 18/20/1 17/17/1 16/16/1
f 19/21/1 20/22/1 21/23/1
f 22/24/1 23/25/1 20/26/1
f 22/27/1 20/22/1 19/21/1
f 24/28/1 23/25/1 22/24/1
f 25/29/1 26/30/1 27/31/1
f 28/32/1 26/30/1 25/29/1
f 29/33/1 30/34/1 31/35/1
f 32/36/1 30/34/1 29/33/1
f 33/37/2 34/38/2 35/39/2
f 35/39/2 34/38/2 36/40/2
f 37/41/2 38/42/2 39/43/2
f 39/43/2 38/42/2 40/44/2
f 41/45/2 42/46/2 43/47/2
f 42/48/2 44/49/2 45/50/2
f 43/47/2 42/46/2 45/51/2
f 45/50/2 44/49/2 46/52/2
f 47/53/2 48/54/2 49/55/2
f 48/56/2 50/57/2 51/58/2
f 49/55/2 48/54/2 51/59/2
f 51/58/2 50/57/2 52/60/2
f 53/61/2 54/62/2 55/63/2
f 55/63/2 54/62/2 56/64/2
f 57/65/3 58/66/3 59/67/3
f 60/68/3 58/66/3 57/65/3
f 61/69/3 62/70/3 63/71/3
f 64/72/3 62/70/3 61/69/3
f 65/73/3 64/74/3 61/75/3
f 66/76/3 64/74/3 65/73/3
f 67/77/3 66/78/3 65/79/3
f 68/80/3 66/78/3 67/77/3
f 69/81/3 68/82/3 67/83/3
f 70/84/3 68/82/3 69/81/3
f 71/85/3 70/86/3 69/87/3
f 72/88/3 70/86/3 71/85/3
f 73/89/3 74/90/3 75/91/3
f 76/92/3 74/90/3 73/89/3
f 77/93/3 78/94/3 79/95/3
f 80/96/3 78/94/3 77/93/3
f 81/97/3 80/98/3 77/99/3
f 82/100/3 80/98/3 81/97/3
f 83/101/3 84/102/3 85/103/3
f 86/104/3 84/102/3 83/101/3
f 87/105/3 88/106/3 89/107/3
f 90/108/3 88/106/3 87/105/3
f 91/109/4 92/110/4 93/111/4
f 93/111/4 92/110/4 94/112/4
f 93/113/4 94/114/4 95/115/4
f 95/115/4 94/114/4 96/116/4
f 97/117/4 98/118/4 99/119/4
f 99/119/4 98/118/4 100/120/4
f 101/121/4 102/122/4 103/123/4
f 103/123/4 102/122/4 104/124/4
f 105/125/4 106/126/4 107/127/4
f 107/127/4 106/126/4 108/128/4
f 107/129/4 108/130/4 109/131/4
f 109/131/4 108/130/4 110/132/4
f 109/133/4 110/134/4 111/135/4
f 111/135/4 110/134/4 112/136/4
f 111/137/4 112/138/4 113/139/4
f 113/139/4 112/138/4 114/140/4
f 113/141/4 114/142/4 115/143/4
f 115/143/4 114/142/4 116/144/4
f 117/145/4 118/146/4 119/147/4
f 119/147/4 118/146/4 120/148/4
f 121/149/4 122/150/4 123/151/4
f 123/151/4 122/150/4 124/152/4
f 125/153/5 126/154/5 127/155/5
f 128/156/5 126/154/5 125/153/5
f 129/157/5 130/158/5 131/159/5
f 132/160/5 133/161/5 130/162/5
f 132/163/5 130/158/5 129/157/5
f 134/164/5 135/165/5 133/166/5
f 134/167/5 133/161/5 132/160/5
f 136/168/5 137/169/5 135/170/5
f 136/171/5 135/165/5 134/164/5
f 138/172/5 139/173/5 137/174/5
f 138/175/5 137/169/5 136/168/5
f 140/176/5 139/173/5 138/172/5
f 141/177/5 128/178/5 125/179/5
f 142/180/5 128/178/5 141/177/5
f 143/181/5 144/182/5 145/183/5
f 146/184/5 147/185/5 148/186/5
f 149/187/5 129/157/5 147/188/5
f 149/189/5 147/185/5 146/184/5
f 150/190/5 140/176/5 138/172/5
f 150/191/5 129/157/5 149/187/5
f 150/190/5 136/192/5 134/193/5
f 150/190/5 132/194/5 129/195/5
f 150/190/5 134/193/5 132/194/5
f 150/190/5 141/196/5 140/176/5
f 150/190/5 142/197/5 141/196/5
f 150/190/5 138/172/5 136/192/5
f 151/198/5 142/197/5 150/190/5
f 152/199/5 142/197/5 151/198/5
f 153/200/5 142/197/5 152/199/5
f 154/201/5 142/197/5 153/200/5
f 155/202/5 142/197/5 154/201/5
f 156/203/5 142/197/5 155/202/5
f 157/204/5 143/205/5 142/206/5
f 157/207/5 142/197/5 156/203/5
f 158/208/5 144/182/5 143/181/5
f 158/209/5 143/205/5 157/204/5
f 159/210/5 151/211/5 150/191/5
f 160/212/5 152/213/5 151/214/5
f 160/215/5 151/211/5 159/210/5
f 161/216/5 153/217/5 152/218/5
f 161/219/5 152/213/5 160/212/5
f 162/220/5 154/221/5 153/222/5
f 162/223/5 153/217/5 161/216/5
f 163/224/5 155/202/5 154/201/5
f 163/225/5 154/221/5 162/220/5
f 164/226/5 155/202/5 163/224/5
f 165/227/5 144/182/5 158/208/5
f 166/228/5 144/182/5 165/227/5
f 167/229/5 157/230/5 156/231/5
f 168/232/5 157/230/5 167/229/5
f 169/233/5 168/234/5 167/235/5
f 170/236/5 168/234/5 169/233/5
f 171/237/6 172/238/6 173/239/6
f 173/239/6 172/238/6 174/240/6
f 175/241/6 176/242/6 177/243/6
f 176/244/6 178/245/6 179/246/6
f 177/243/6 176/242/6 179/247/6
f 178/248/6 180/249/6 181/250/6
f 179/246/6 178/245/6 181/251/6
f 180/252/6 182/253/6 183/254/6
f 181/250/6 180/249/6 183/255/6
f 182/256/6 184/257/6 185/258/6
f 183/254/6 182/253/6 185/259/6
f 185/258/6 184/257/6 186/260/6
f 173/261/6 174/262/6 187/263/6
f 187/263/6 174/262/6 188/264/6
f 189/265/6 190/266/6 191/267/6
f 192/268/6 193/269/6 194/270/6
f 193/271/6 177/243/6 195/272/6
f 194/270/6 193/269/6 195/273/6
f 185/258/6 186/260/6 196/274/6
f 195/272/6 177/243/6 196/275/6
f 181/276/6 183/277/6 196/274/6
f 177/278/6 179/279/6 196/274/6
f 179/279/6 181/276/6 196/274/6
f 186/260/6 187/280/6 196/274/6
f 187/280/6 188/281/6 196/274/6
f 183/277/6 185/258/6 196/274/6
f 196/274/6 188/281/6 197/282/6
f 197/282/6 188/281/6 198/283/6
f 198/283/6 188/281/6 199/284/6
f 199/284/6 188/281/6 200/285/6
f 200/285/6 188/281/6 201/286/6
f 201/286/6 188/281/6 202/287/6
f 188/288/6 191/289/6 203/290/6
f 202/287/6 188/281/6 203/291/6
f 191/267/6 190/266/6 204/292/6
f 203/290/6 191/289/6 204/293/6
f 196/275/6 197/294/6 205/295/6
f 197/296/6 198/297/6 206/298/6
f 205/295/6 197/294/6 206/299/6
f 198/300/6 199/301/6 207/302/6
f 206/298/6 198/297/6 207/303/6
f 199/304/6 200/305/6 208/306/6
f 207/302/6 199/301/6 208/307/6
f 200/285/6 201/286/6 209/308/6
f 208/306/6 200/305/6 209/309/6
f 209/308/6 201/286/6 210/310/6
f 204/292/6 190/266/6 211/311/6
f 211/311/6 190/266/6 212/312/6
f 202/313/6 203/314/6 213/315/6
f 213/315/6 203/314/6 214/316/6
f 213/317/6 214/318/6 215/319/6
f 215/319/6 214/318/6 216/320/6
